<mxfile host="app.diagrams.net" modified="2024-06-03T19:00:53.915Z" agent="Mozilla/5.0 (Windows NT 10.0; Win64; x64) AppleWebKit/537.36 (KHTML, like Gecko) Chrome/125.0.0.0 Safari/537.36" version="23.1.4" etag="BVyFhkRKxBUha2IauxKC" type="github">
  <diagram name="Pagina-1" id="wkFQU_TjdlidjfOGd9dg">
    <mxGraphModel>
      <root>
        <mxCell id="0" />
        <mxCell id="1" parent="0" />
      </root>
    </mxGraphModel>
  </diagram>
</mxfile>
